<svg class="icon" viewBox="0 0 1030 1024" xmlns="http://www.w3.org/2000/svg" width="64.375" height="64"><defs><style/></defs><path d="M376.054 561.35H86.338A86.44 86.44 0 000 647.689v289.923A86.492 86.492 0 0086.338 1024h289.716a86.492 86.492 0 0086.39-86.39V647.69a86.44 86.44 0 00-86.39-86.338zm8.397 376.055a8.551 8.551 0 01-8.397 8.602H86.338a8.5 8.5 0 01-8.345-8.396V647.688a8.448 8.448 0 018.345-8.345h289.716a8.5 8.5 0 018.397 8.345z"/><path d="M1018.694 287.913l-82.423-142.488a38.97 38.97 0 10-67.483 38.996l82.422 142.488a8.603 8.603 0 01-3.09 11.488l-251.08 144.91a8.088 8.088 0 01-6.337.824 8.242 8.242 0 01-5.152-3.864L540.9 229.187a8.5 8.5 0 013.091-11.436L795.02 72.79a38.996 38.996 0 00-38.946-67.536L504.84 150.216a85.668 85.668 0 00-40.285 52.699 84.638 84.638 0 00-1.906 9.272V127.91a86.492 86.492 0 00-86.595-86.39H86.338A86.44 86.44 0 000 127.91v289.922a86.44 86.44 0 0086.338 86.338h289.716a86.44 86.44 0 0086.595-86.338V238.253a85.823 85.823 0 0010.303 29.93l145.219 251.08a85.514 85.514 0 0061.817 42.088H611.37a86.492 86.492 0 00-86.39 86.338V937.61a86.544 86.544 0 0086.39 86.389h290.128a86.492 86.492 0 0086.338-86.39V647.69a86.44 86.44 0 00-86.338-86.338H706.312a85.926 85.926 0 0029.723-10.303l251.08-145.167a86.44 86.44 0 0031.579-117.968zM384.657 417.832a8.5 8.5 0 01-8.603 8.345H86.338a8.448 8.448 0 01-8.345-8.345V127.91a8.5 8.5 0 018.345-8.397h289.716a8.551 8.551 0 018.397 8.397zm524.981 229.857V937.61a8.5 8.5 0 01-8.345 8.396H611.371a8.551 8.551 0 01-8.397-8.396V647.689a8.5 8.5 0 018.397-8.346h290.128a8.448 8.448 0 018.14 8.345z"/></svg>